<svg width="130" height="40" viewBox="0 0 130 40" fill="none" xmlns="http://www.w3.org/2000/svg">
<path d="M129.986 26.2617H0.0354004V28.6582H129.986V26.2617Z" fill="url(#paint0_radial_0_12)"/>
<path d="M18.7429 19.9629C18.7924 20.4895 18.5498 20.8373 18.2435 20.9873C16.8203 21.6941 15.3093 22.862 15.2183 22.87C15.1274 22.878 14.5833 22.5254 15.0077 22.1648C16.8506 20.5996 18.7349 19.9278 18.7429 19.9629ZM6.80984 5.28076C6.9295 5.57754 7.07629 6.44391 7.07629 6.44391C7.07629 6.44391 7.00609 6.77579 6.72846 6.8412C5.88442 7.03746 5.90676 5.21375 5.90676 5.21375C5.90676 5.21375 5.79348 4.89783 5.53021 4.88028C5.26695 4.86273 5.05314 5.26481 5.05314 5.32863C5.05314 5.39564 5.16483 6.0179 5.53021 7.12042C5.8924 8.21975 6.67741 8.00435 7.09065 7.88947C7.49911 7.7746 7.71929 7.14914 7.84694 7.08692C8.00968 7.00714 9.02764 7.2018 9.17921 6.69122C9.54778 5.4116 8.66864 4.30589 8.40538 3.94849C8.14371 3.5863 7.83098 3.94849 7.83098 3.94849C8.29529 4.60585 8.91755 6.08651 8.39102 6.29872C7.8613 6.51093 7.53421 5.1978 7.48634 4.86273C7.43369 4.54043 7.38423 4.22292 6.91195 4.36014C6.43329 4.49097 6.69655 4.98399 6.80984 5.28076ZM37.9484 21.6143C37.9197 21.9606 37.8894 22.3004 38.1511 22.2749C39.2057 22.1584 39.729 18.4312 39.8136 14.6705C39.8902 11.2545 39.0972 7.2704 38.9791 6.64017C38.8659 6.00833 38.8068 5.60626 39.1531 5.31746C39.4993 5.03026 39.9604 5.31746 40.1327 5.20258C40.3034 5.0877 40.1598 4.83242 40.1598 4.83242C40.1598 4.83242 38.092 1.21533 37.9197 1.01269C37.7426 0.813249 37.5735 0.985567 37.5735 0.985567L36.5029 2.80927C36.5029 2.80927 37.4331 6.32106 38.0043 11.4029C38.4702 15.5114 37.9755 21.2713 37.9484 21.6143ZM33.0533 20.9362C33.3581 20.7862 33.6006 20.4352 33.5479 19.9119C33.5447 19.8752 31.6588 20.5469 29.8159 22.1137C29.3899 22.4727 29.9324 22.8301 30.0218 22.8206C30.1159 22.8094 31.6301 21.6414 33.0533 20.9362ZM59.201 21.1101C59.6031 20.9107 59.9206 20.4512 59.8568 19.7603C59.8504 19.7156 57.3662 20.5996 54.9409 22.6578C54.3841 23.1301 55.1021 23.5992 55.2202 23.5896C55.3366 23.5752 57.3247 22.0371 59.201 21.1101ZM118.764 21.0878C118.448 20.9187 117.416 20.5708 117.416 20.5708C117.416 20.5708 117.156 20.4863 116.984 20.6586C116.813 20.8277 115.953 22.0068 115.953 22.0068C115.953 22.0068 115.867 22.2685 116.039 22.3499C116.215 22.4376 117.821 23.1269 117.821 23.1269L118.965 21.6303C118.964 21.6319 119.08 21.2633 118.764 21.0878ZM106.528 10.1376C106.528 10.1376 106.27 10.0562 106.097 10.2253C105.922 10.3945 105.063 11.5768 105.063 11.5768C105.063 11.5768 104.979 11.8321 105.151 11.9166C105.323 12.0044 106.927 12.6921 106.927 12.6921L108.076 11.2018C108.076 11.2018 108.192 10.8285 107.875 10.6561C107.562 10.4854 106.528 10.1376 106.528 10.1376ZM105.208 8.67767C105.208 8.67767 109.567 5.28874 117.915 2.10564L118.834 0.414363C118.834 0.414363 112.583 2.12957 105.352 6.75504C104.95 7.01193 104.518 8.04743 104.577 8.33144C104.629 8.62023 104.92 8.76383 105.208 8.67767ZM121.957 0.278742C121.781 0.0777041 121.607 0.246831 121.607 0.246831L120.538 2.07054C120.538 2.07054 121.263 4.83082 121.829 8.99199L122.025 10.5253C122.029 10.5716 122.033 10.6163 122.04 10.6609C122.096 11.1204 122.148 11.5768 122.209 12.0076L122.592 15.0455C122.592 15.0455 123.079 17.3957 121.186 17.7164C118.807 18.1121 119.118 15.706 119.208 15.4172C119.294 15.13 119.134 14.9083 118.89 15.1013C116.352 17.1277 114.498 18.377 112.294 18.4041C108.875 18.4456 109.311 16.2517 109.253 15.6486C109.185 14.9561 108.792 15.1013 108.62 15.3024C108.444 15.5018 107.128 18.3467 105.263 18.144C102.925 17.8951 103.34 15.0455 103.34 14.2445C103.34 8.96646 102.223 0.901003 102.223 0.615402C102.223 0.328204 101.936 0.387239 101.936 0.387239L100.934 2.1918C102.022 8.62023 102.081 15.1029 102.081 15.1029C102.081 15.1029 99.8139 18.9514 95.1677 18.9785C92.7569 18.9928 91.3783 18.3004 90.6332 17.6303C89.904 16.9729 89.7142 16.3522 89.687 15.7651C89.6296 14.5317 90.7481 13.2074 90.7481 13.2074C90.7481 13.2074 90.7481 12.7527 90.3747 12.5804C90.0046 12.4096 89.1414 13.0415 88.5686 16.1655C87.9942 19.2944 91.2938 20.9825 93.3025 21.075C99.1837 21.3335 101.708 17.7739 101.91 17.5728C102.11 17.3686 102.683 16.799 102.742 17.8297C102.798 18.862 103.571 20.5868 105.467 20.5246C107.359 20.4687 107.787 19.1476 107.958 18.9195C108.133 18.6913 108.38 18.6323 108.589 19.0072C108.848 19.4667 110.412 21.1357 112.982 20.5549C116.767 19.7029 117.662 17.8983 118.086 17.8887C118.924 17.8648 118.404 19.8114 120.644 19.8114C123.364 19.8114 123.852 16.3666 123.879 15.9629C123.894 15.7619 123.667 13.3574 123.423 10.9322C123.31 8.50855 123.094 6.31946 123.016 5.90462C122.901 5.2696 122.846 4.86592 123.185 4.58192C123.527 4.29791 123.988 4.58192 124.162 4.46863C124.336 4.35216 124.191 4.09528 124.191 4.09528C124.191 4.09528 122.129 0.482972 121.957 0.278742ZM95.2539 14.8732C94.0221 15.1923 92.1537 14.6721 92.0979 14.9003C92.0421 15.1316 93.5738 16.6889 95.8028 16.1703C97.9089 15.6869 98.1626 14.6801 98.4386 14.0706C98.9252 12.984 98.6939 11.4029 97.6041 11.5481C96.5144 11.6948 96.1139 11.1747 96.1139 10.8285C96.1139 10.4854 96.3708 10.1137 97.0632 9.99718C97.7461 9.88231 97.9216 9.30951 97.9216 9.30951L97.9504 8.21975C97.9504 8.21975 98.0062 7.64217 97.3472 7.76024C96.6883 7.87192 95.7996 8.67927 95.2539 9.79615C94.7082 10.9178 94.638 12.4878 94.9922 13.0096C95.4262 13.643 96.8287 13.3829 96.9164 13.9318C96.9563 14.1887 96.4872 14.5588 95.2539 14.8732ZM127.613 20.6969C127.586 21.0431 127.554 21.3909 127.813 21.3606C128.867 21.2442 129.39 17.5106 129.473 13.7531C129.552 10.337 128.755 6.35297 128.645 5.71954C128.527 5.0877 128.471 4.68882 128.815 4.39843C129.161 4.11123 129.617 4.39843 129.786 4.28515C129.962 4.17027 129.82 3.91339 129.82 3.91339C129.82 3.91339 127.757 0.299484 127.586 0.0984461C127.414 -0.102592 127.237 0.0665353 127.237 0.0665353L126.164 1.89183C126.164 1.89183 127.093 5.40522 127.669 10.4822C128.135 14.5907 127.643 20.3538 127.613 20.6969ZM75.1644 4.35056C75.2809 4.33461 77.2753 2.80129 79.1533 1.87269C79.5458 1.67325 79.8681 1.21533 79.8043 0.524456C79.7947 0.474994 77.312 1.36212 74.8916 3.42196C74.3316 3.89424 75.0448 4.36173 75.1644 4.35056ZM51.2871 9.81051C50.7574 10.0227 50.4319 8.71118 50.3809 8.3809C50.3314 8.04903 50.282 7.7379 49.8065 7.87033C49.3294 8.00276 49.5943 8.49738 49.7108 8.79415C49.8224 9.08613 49.9724 9.9573 49.9724 9.9573C49.9724 9.9573 49.9086 10.2892 49.6278 10.3546C48.7806 10.5508 48.8029 8.72554 48.8029 8.72554C48.8029 8.72554 48.6864 8.41122 48.4263 8.39686C48.1583 8.3809 47.9509 8.77819 47.9509 8.84361C47.9509 8.91222 48.0626 9.53288 48.4263 10.6322C48.7853 11.7363 49.5783 11.5209 49.9884 11.4045C50.4 11.2928 50.6138 10.6625 50.7399 10.6019C50.8978 10.5205 51.9238 10.7152 52.0722 10.2062C52.4439 8.92977 51.5632 7.82246 51.2999 7.46506C51.0366 7.10128 50.7255 7.46506 50.7255 7.46506C51.185 8.11923 51.8121 9.5983 51.2871 9.81051ZM78.3443 4.05698C77.4843 4.32025 76.6259 5.44511 76.5924 6.49976C76.5573 7.55601 78.0492 8.10647 78.0492 8.10647C78.0492 8.10647 77.6072 8.7734 77.805 9.51693C77.9343 10.0275 78.0795 9.83444 78.0795 9.83444C78.6459 8.41441 79.699 7.9166 80.1952 7.75385C80.6866 7.58792 80.7217 7.35976 80.7217 7.35976C80.7217 7.35976 81.1796 5.81048 80.9211 5.81048C80.6866 5.81048 79.7963 6.2349 79.4708 6.39924C79.1405 6.56358 78.3635 6.76621 78.1609 6.4503C77.7348 5.77538 78.6778 5.78336 78.8533 5.78815C79.0639 5.79134 79.3304 5.77219 80.0978 5.28874C80.4233 5.08292 80.318 4.85795 80.1537 4.625C79.9846 4.39364 79.2027 3.79212 78.3443 4.05698ZM4.21868 36.3555L1.39297 31.0009H0.0383584V39.0233H1.32915V33.7851L4.11337 39.0233H5.51266V31.0009H4.21868V36.3555ZM99.6145 35.4844H103.078V34.1282H99.6145V32.3571H103.34V31.0009H98.2168V39.0233H103.466V37.6671H99.6145V35.4844ZM78.6092 31.0009H76.736L73.9231 34.5589V31.0009H72.5254V39.0233H73.9231V36.598L75.0495 35.2562L76.9514 39.0249H78.7528L76.0148 34.1218L78.6092 31.0009ZM107.863 36.0651H109.461V37.0895C109.244 37.2809 108.996 37.4389 108.704 37.5713C108.408 37.707 108.116 37.7724 107.825 37.7724C107.236 37.7724 106.756 37.541 106.392 37.0608C106.029 36.5837 105.847 35.8689 105.847 34.9148C105.847 34.0276 106.029 33.3655 106.386 32.9171C106.743 32.4688 107.23 32.2406 107.836 32.2406C108.238 32.2406 108.573 32.3555 108.842 32.5853C109.116 32.8118 109.29 33.1293 109.395 33.5218L110.777 33.2139C110.636 32.4832 110.325 31.8992 109.848 31.4859C109.362 31.0663 108.696 30.8589 107.838 30.8589C107.179 30.8589 106.63 30.9945 106.187 31.2546C105.607 31.6008 105.165 32.1002 104.865 32.7528C104.562 33.399 104.411 34.1393 104.411 34.9786C104.411 35.746 104.545 36.464 104.819 37.1118C105.084 37.7708 105.496 38.275 106.029 38.626C106.563 38.9786 107.19 39.1557 107.916 39.1557C108.483 39.1557 109.043 39.0344 109.599 38.7792C110.153 38.5303 110.576 38.2399 110.866 37.9096V34.7153H107.865V36.0651H107.863ZM89.6567 39.0233H91.056V35.612H93.9328V34.2526H91.056V32.3587H94.3907V31.0025H89.6551V39.0233H89.6567ZM124.519 31.0009V32.3571H126.565V39.0233H127.958V32.3571H130V31.0009H124.519ZM114.488 34.1664L112.865 31.0009H111.233L113.756 35.6423V39.0233H115.144V35.6599L117.684 31.0009H116.082L114.488 34.1664ZM12.6096 32.3571H14.6519V39.0233H16.0464V32.3571H18.0903V31.0009H12.6096V32.3571ZM33.5016 36.3555L30.6728 31.0009H29.3181V39.0233H30.6073V33.7851L33.3995 39.0233H34.7908V31.0009H33.5016V36.3555ZM19.0795 39.0233H20.4772V31.0009H19.0795V39.0233ZM44.6609 31.0647H43.2664V39.0217H48.1264V37.6719H44.6609V31.0647ZM69.7444 36.3555L66.9155 31.0009H65.5609V39.0233H66.8532V33.7851L69.6391 39.0233H71.0415V31.0009H69.746V36.3555H69.7444ZM35.1339 19.655C34.7478 19.655 34.0409 19.4157 33.5128 18.8253C33.0278 18.286 32.7837 17.2202 32.3225 17.3462C32.1135 17.3973 31.6748 17.3798 31.1642 17.6095C29.8941 18.1887 27.8119 18.8333 26.1334 19.1237C24.7006 19.3694 22.3584 20.1177 20.1167 18.5924L19.4114 19.2449C19.4114 19.2449 19.2455 18.7854 19.1817 18.4903C19.1147 18.1919 19.2758 17.9111 19.2758 17.9111C19.2758 17.9111 17.9866 16.8117 16.9176 17.2745C16.3927 17.4978 14.695 18.953 13.0053 20.5485C11.2247 22.2398 10.2993 23.3854 8.34315 23.3231C6.49392 23.2641 6.11418 21.6861 6.06312 20.6538C6.02642 19.7938 6.94546 17.86 6.94546 17.86C6.94546 17.86 2.54974 18.0834 0.544145 14.9833C-0.958855 12.6633 1.01643 8.51971 2.07906 7.7363C3.14647 6.9513 2.25776 9.19463 1.79505 10.2636C1.54774 10.8348 0.815387 12.7575 1.90036 14.1344C3.25178 15.8353 5.20472 16.2565 6.99013 15.99C10.8338 15.4236 13.4999 12.8995 13.251 12.3602C13.0037 11.8257 11.9491 12.2692 10.6918 11.931C9.47758 11.6151 8.83936 10.9386 8.94627 9.72754C9.00211 9.11006 9.4361 7.19861 10.7269 5.99876C12.2698 4.56118 13.8877 4.266 14.3185 4.21335C15.2088 4.10964 15.5279 4.78455 15.3524 5.85197C15.1737 6.91779 15.0987 7.27519 14.3855 7.16989C13.677 7.06298 14.1429 6.49178 13.7169 6.45827C13.4345 6.43275 12.5171 6.53805 11.0284 8.14317C10.5833 8.62023 10.2259 9.39088 10.5498 9.62064C11.1896 10.0865 11.8948 9.67967 13.2877 9.90464C14.5339 10.1089 15.3268 10.8636 15.2455 11.9677C15.137 13.4308 13.4281 14.9099 11.756 16.0634C9.58927 17.5553 7.27892 17.8792 7.27892 17.8792C7.27892 17.8792 6.63433 21.2585 8.66066 21.367C10.6934 21.4707 12.8314 18.1951 14.2435 16.9186C15.8582 15.4603 16.474 15.1109 17.7696 14.9099C18.936 14.7248 19.9699 15.781 20.3257 16.0539C20.6942 15.4827 21.2702 14.5413 21.8287 13.8584C22.269 13.3223 24.2491 11.1189 26.6297 11.2242C29.0182 11.3311 30.3329 13.0734 30.2595 14.0706C30.1909 15.0662 29.8319 15.8879 29.9053 16.132C29.9739 16.3857 31.6971 16.4847 31.863 14.5636C31.9747 13.3223 31.7609 10.6051 31.429 7.98999C30.8897 4.39524 30.2771 2.07213 30.2771 2.07213L31.3461 0.248427C31.3461 0.248427 31.5264 0.0792997 31.6955 0.280338C31.8678 0.484567 33.9309 4.09687 33.9309 4.09687C33.9309 4.09687 34.0776 4.35375 33.9053 4.47023C33.7298 4.58351 33.2719 4.29951 32.9288 4.58351C32.5842 4.86752 32.6401 5.27119 32.7581 5.90622C32.8698 6.51571 33.2847 10.9465 33.24 14.3339C33.3118 14.4775 33.4314 14.5509 33.6038 14.5333C34.3202 14.4631 34.5356 14.0371 35.3493 14.1424C36.171 14.2477 37.8048 14.854 37.5623 17.3814C37.3916 19.0343 35.8822 19.655 35.1339 19.655ZM28.6576 14.9928C28.6719 14.562 27.4099 13.3925 26.2036 13.1787C24.9942 12.9665 23.6173 14.0339 22.5945 15.296C21.8191 16.2629 21.6579 16.8564 21.6579 16.8564C22.0824 17.9749 23.9683 17.4659 25.0389 17.1644C27.1993 16.5549 28.6352 15.6326 28.6576 14.9928ZM35.6668 16.8117C35.453 16.4926 34.8914 16.2102 34.6361 16.4208C34.459 16.5612 34.459 17.0638 34.9552 17.4484C35.453 17.8425 35.8822 17.1293 35.6668 16.8117ZM0.532976 6.83482C0.564887 6.71994 0.671788 6.66091 0.671788 6.66091C4.26335 5.00793 5.40257 3.02148 5.40257 3.02148C4.07508 1.97002 4.59842 0.961634 4.81062 0.682414C5.02123 0.403195 5.82379 -0.34671 6.41574 0.189392C6.98535 0.706347 6.62794 1.75143 6.62794 1.75143L6.92472 2.13755C7.03002 3.44749 6.48115 3.68522 6.48115 3.68522L6.05993 3.36133C5.57329 4.10964 3.9953 5.84399 1.60039 6.8077C0.794645 7.13957 0.477132 7.01193 0.532976 6.83482ZM5.72008 1.76898C6.54019 1.38924 5.93707 0.597851 5.55893 0.931319C5.17281 1.26957 5.5717 1.84716 5.72008 1.76898ZM41.6533 10.0211C41.7043 9.86954 41.8447 9.79136 41.8447 9.79136C46.7207 7.57994 48.2684 4.909 48.2684 4.909C46.4622 3.50812 47.1834 2.1551 47.4658 1.78334C47.7546 1.41477 48.8364 0.407981 49.6469 1.12278C50.4256 1.81365 49.9357 3.21933 49.9357 3.21933L50.3378 3.73788C50.4798 5.4834 49.7363 5.79932 49.7363 5.79932L49.1571 5.37012C48.4997 6.37371 46.3569 8.69682 43.1052 9.98761C42.0027 10.4264 41.5799 10.2604 41.6533 10.0211ZM48.6465 3.2289C49.6198 2.76938 48.9034 1.81844 48.4423 2.22371C47.9812 2.62259 48.4567 3.31346 48.6465 3.2289ZM96.2559 4.40003C94.4529 2.99914 95.1661 1.64931 95.4517 1.27596C95.7389 0.902599 96.8287 -0.100997 97.6312 0.615402C98.4115 1.30468 97.9216 2.71035 97.9216 2.71035L98.3237 3.2289C98.4657 4.97602 97.7174 5.29034 97.7174 5.29034L97.1462 4.85954C96.4872 5.86633 94.346 8.18624 91.0927 9.48182C89.9902 9.92219 89.5626 9.74828 89.6376 9.51054C89.6839 9.35897 89.829 9.27919 89.829 9.27919C94.7082 7.07096 96.2559 4.40003 96.2559 4.40003ZM96.6308 2.76938C97.6025 2.30508 96.8877 1.36211 96.4282 1.7626C95.9687 2.16308 96.4426 2.85714 96.6308 2.76938ZM72.0005 20.7735C69.3247 20.4113 68.9929 18.3626 68.7647 17.2042C68.6036 16.3937 67.2761 17.1755 66.9777 17.2729C66.6841 17.3702 63.8425 18.1967 61.6949 18.0658C57.8608 17.8345 56.5381 15.655 55.9445 15.1572C55.5456 14.8253 55.2872 14.929 55.1547 15.1572C55.0207 15.3885 55.0558 15.6566 55.3542 15.722C55.6494 15.789 56.5109 15.9853 56.7072 16.8468C56.9082 17.7021 55.8121 20.5453 51.8169 22.2621C50.8643 22.6738 48.0179 23.8816 44.4471 22.3307C43.5599 21.9398 41.7729 19.9853 41.7426 17.7036C41.7235 16.1193 43.3924 12.9473 43.9221 13.7403C44.0944 13.9988 41.9724 16.8819 43.6908 19.5896C44.0195 20.1033 44.83 20.8293 46.0011 21.1404C47.0733 21.4245 48.4694 21.3367 49.6453 21.1133C53.3917 20.3921 55.0462 18.4025 55.1882 18.1344C55.4531 17.6382 54.625 17.5712 54.3282 17.5361C54.0299 17.5026 51.4818 17.5712 51.3542 17.4372C51.2201 17.308 51.6158 15.5592 51.6158 15.5592C51.6158 15.5592 51.7179 15.1907 52.5093 15.0598C53.2991 14.9306 55.2505 13.5648 55.0542 11.1603C54.9218 9.54086 54.2596 7.19701 54.1655 5.28236C54.065 3.36771 54.2947 0.691988 54.424 0.427128C54.5596 0.163863 54.8548 -0.0371749 54.9569 0.559558C55.0558 1.1531 56.1759 11.4938 56.8715 13.0782C57.5656 14.6625 59.651 16.3522 63.1835 15.8544C66.7176 15.3582 67.9079 14.9306 68.5365 14.4009C68.5365 14.4009 69.1636 14.2046 69.43 12.7782C69.6869 11.363 70.7831 8.12242 71.0782 8.15593C71.3766 8.18944 72.5334 9.93815 72.3706 12.0506C72.2206 13.9286 71.608 15.0598 71.2793 15.2928C71.2793 15.2928 74.2853 15.5449 74.3475 18.2318C74.4113 21.0399 72.4919 20.8389 72.0005 20.7735ZM70.2486 13.635C70.748 13.9637 71.0112 13.5361 71.308 12.8755C71.6048 12.2134 71.1341 11.5433 70.9107 11.6246C70.448 11.789 69.7539 13.3047 70.2486 13.635ZM72.728 18.2637C72.4712 17.3558 70.7512 17.1117 70.5804 17.3367C70.2821 17.7324 70.9107 18.2637 71.2745 18.4647C71.6335 18.661 72.8605 18.7296 72.728 18.2637ZM82.2087 18.2637C82.0827 20.8086 79.9957 21.4994 79.0081 21.4356C78.0141 21.3686 77.2881 21.1724 77.2211 18.9897C77.1541 16.8117 79.0751 15.3869 79.0751 15.3869L68.5334 4.78136L68.3339 2.33859C68.3339 2.33859 72.1026 4.71754 72.4616 4.9808C72.8238 5.24566 72.7919 5.53924 72.2972 5.57754C71.8026 5.61104 72.1026 6.11523 72.1026 6.11523L80.1904 13.9509L83.8537 10.4391C84.1106 7.38369 82.8374 2.44868 82.8374 2.44868C82.8374 2.44868 83.466 1.05098 83.6591 0.819631C83.8585 0.596255 84.0229 0.918554 84.0229 0.918554L85.7748 5.18184C85.7748 5.18184 85.8737 5.44511 85.6774 5.54084C85.4764 5.64455 85.4126 5.47861 85.1142 5.27917C84.8175 5.07813 84.6531 5.54084 84.6531 5.54084L85.1477 9.14357C86.9986 7.82246 92.3468 0.752618 92.5478 0.490949C92.7489 0.227685 93.3568 -0.000477486 93.1446 0.851542C92.2846 4.28834 85.3153 11.0933 85.3153 11.0933C85.3153 11.0933 85.4158 16.8133 85.2818 18.862C85.1509 20.9059 83.7963 23.4189 84.0612 21.6686C84.3228 19.9183 84.0612 12.483 84.0612 12.483L81.32 15.229C81.32 15.2258 82.3061 16.2086 82.2087 18.2637ZM81.0871 17.4324C81.1158 17.0718 80.1936 16.3123 80.1936 16.3123C79.0751 16.6442 78.5103 18.0323 78.5103 18.3945C78.5103 18.7567 78.8725 18.9881 79.8633 18.8588C80.8541 18.7296 81.0536 17.7978 81.0871 17.4324ZM10.4445 31.0009L13.2064 39.0233H11.6906L11.0907 37.1964H8.33358L7.76237 39.0233H6.28171L8.97179 31.0009H10.4445ZM10.6455 35.8481L9.69298 32.8677L8.76118 35.8481H10.6455ZM87.6527 31.9614C88.2622 32.6922 88.5606 33.7069 88.5606 35.0217C88.5606 36.3156 88.2622 37.3272 87.6559 38.058C87.0496 38.7887 86.2375 39.1573 85.2275 39.1573C84.1984 39.1573 83.3863 38.7887 82.7799 38.0628C82.1704 37.3336 81.8721 36.3332 81.8721 35.0615C81.8721 34.2414 81.9726 33.5522 82.1912 33.0001C82.3428 32.5932 82.5582 32.2231 82.8278 31.8976C83.0943 31.5769 83.3974 31.336 83.7213 31.1812C84.1473 30.9706 84.6419 30.8621 85.2084 30.8621C86.2263 30.8605 87.0384 31.2243 87.6527 31.9614ZM87.1214 34.9802C87.1214 34.0611 86.9475 33.3751 86.6061 32.9251C86.255 32.4704 85.7987 32.2438 85.2227 32.2438C84.6467 32.2438 84.1824 32.472 83.8298 32.9331C83.4804 33.3894 83.3033 34.0723 83.3033 35.0057C83.3033 35.912 83.4804 36.5996 83.8474 37.0671C84.2016 37.541 84.6659 37.7724 85.2227 37.7724C85.7764 37.7724 86.2327 37.541 86.5901 37.0751C86.9491 36.6124 87.1214 35.9104 87.1214 34.9802ZM123.468 31.8976C123.737 32.3044 123.87 32.823 123.87 33.466C123.87 33.959 123.793 34.3723 123.635 34.7073C123.481 35.044 123.289 35.3057 123.048 35.4987C122.815 35.6918 122.574 35.8099 122.329 35.8769C121.995 35.955 121.517 35.9917 120.885 35.9917H119.975V39.0233H118.582V31.0009H120.818C121.67 31.0009 122.215 31.0392 122.474 31.1142C122.868 31.2386 123.2 31.5019 123.468 31.8976ZM122.432 33.4836C122.432 33.1932 122.359 32.9538 122.209 32.764C122.062 32.5757 121.875 32.456 121.647 32.4066C121.483 32.3699 121.151 32.3555 120.65 32.3555H119.977V34.6244H120.739C121.284 34.6244 121.649 34.5893 121.844 34.5063C122.03 34.4249 122.171 34.2877 122.278 34.109C122.381 33.9271 122.432 33.7245 122.432 33.4836ZM27.2982 31.9614C27.9141 32.6922 28.2156 33.7069 28.2156 35.0217C28.2156 36.3156 27.9141 37.3272 27.3046 38.058C26.6983 38.7887 25.8941 39.1573 24.8793 39.1573C23.8502 39.1573 23.0365 38.7887 22.4254 38.0628C21.8191 37.3336 21.5223 36.3332 21.5223 35.0615C21.5223 34.2414 21.6244 33.5522 21.8366 33.0001C21.9882 32.5932 22.2084 32.2231 22.4781 31.8976C22.7525 31.5769 23.0477 31.3344 23.37 31.1812C23.8008 30.9706 24.2954 30.8621 24.857 30.8621C25.8782 30.8605 26.6935 31.2243 27.2982 31.9614ZM26.7764 34.9818C26.7764 34.0595 26.6009 33.3798 26.2579 32.9235C25.9069 32.4688 25.4426 32.2422 24.8777 32.2422C24.2954 32.2422 23.8438 32.4704 23.4864 32.9315C23.1354 33.3878 22.9567 34.0707 22.9567 35.0041C22.9567 35.9104 23.1386 36.5981 23.4992 37.0687C23.8598 37.5378 24.3129 37.7724 24.8777 37.7724C25.4298 37.7724 25.8845 37.5378 26.2403 37.0735C26.5961 36.6124 26.7764 35.9104 26.7764 34.9818ZM39.729 31.0009L42.4877 39.0233H40.9736L40.3768 37.1964H37.6118L37.0438 39.0233H35.5663L38.25 31.0009H39.729ZM39.9221 35.8481L38.9744 32.8677L38.0394 35.8481H39.9221ZM62.0523 31.0009L64.8125 39.0233H63.2952L62.6905 37.1964H59.9318L59.3654 39.0233H57.8799L60.5764 31.0009H62.0523ZM62.2437 35.8481L61.2912 32.8677L60.3626 35.8481H62.2437ZM57.0726 35.486C57.296 35.8322 57.4092 36.2311 57.4092 36.6954C57.4092 37.0592 57.339 37.415 57.1891 37.7532C57.0423 38.0995 56.8396 38.3771 56.5891 38.5829C56.3322 38.7871 56.0291 38.9164 55.6573 38.9626C55.4244 38.9946 54.8628 39.0089 53.9788 39.0217H51.6222V30.9993H54.3873C54.9282 30.9993 55.335 31.0232 55.6079 31.0695C55.8775 31.1285 56.1089 31.237 56.3291 31.4062C56.5349 31.5737 56.7136 31.7939 56.8524 32.0747C56.996 32.3555 57.0726 32.6666 57.0726 33.0161C57.0726 33.3894 56.9864 33.7356 56.8077 34.0532C56.6322 34.3627 56.3945 34.5972 56.1025 34.7568C56.5205 34.902 56.8412 35.1445 57.0726 35.486ZM53.0199 34.1856H53.931C54.4734 34.1856 54.8165 34.176 54.9505 34.1569C55.1835 34.1282 55.3749 34.0276 55.5105 33.8681C55.6494 33.7069 55.7116 33.5011 55.7116 33.2426C55.7116 32.9937 55.6573 32.7911 55.5313 32.6443C55.4228 32.4863 55.2441 32.3954 55.0175 32.3555C54.8739 32.338 54.4734 32.3284 53.8193 32.3284H53.0199V34.1856ZM55.9669 36.6156C55.9669 36.3763 55.9174 36.1688 55.8185 36.0061C55.7196 35.8386 55.5712 35.7141 55.3845 35.6375C55.1882 35.5562 54.7814 35.5243 54.1495 35.5243H53.0199V37.6719H54.3139C54.8165 37.6719 55.1292 37.6511 55.2696 37.6176C55.4754 37.5745 55.6446 37.4692 55.7706 37.2985C55.9015 37.1262 55.9669 36.9012 55.9669 36.6156Z" fill="#007236"/>
<defs>
<radialGradient id="paint0_radial_0_12" cx="0" cy="0" r="1" gradientUnits="userSpaceOnUse" gradientTransform="translate(20.1792 -0.595977) scale(190.487 190.611)">
<stop offset="0.00549451" stop-color="#FFEB00"/>
<stop offset="0.9176" stop-color="#F06023"/>
<stop offset="1" stop-color="#F06023"/>
</radialGradient>
</defs>
</svg>
